<?xml version="1.0" encoding="UTF-8"?>
<svg id="_图层_2" data-name="图层 2" xmlns="http://www.w3.org/2000/svg" viewBox="0 0 189.6 189.7">
  <defs>
    <style>
      .cls-1 {
        fill: #6e6e6e;
      }
    </style>
  </defs>
  <g id="_图层_1-2" data-name=" 图层 1">
    <g>
      <path class="cls-1" d="M82.9,1H5.7C2.5,1,0,3.6,0,6.7v77.2c0,3.2,2.6,5.7,5.7,5.7h77.2c3.2,0,5.7-2.6,5.7-5.7V6.7c0-3.2-2.6-5.7-5.7-5.7ZM80.1,81.1H8.4V9.5h71.7v71.7-.1Z"/>
      <path class="cls-1" d="M83.1,101H5.5C2.4,101,0,103.5,0,106.5v77.6c0,3.1,2.5,5.5,5.5,5.5h77.6c3.1,0,5.5-2.5,5.5-5.5v-77.6c0-3.1-2.5-5.5-5.5-5.5ZM80.1,181.1H8.4v-71.7h71.7v71.7Z"/>
      <path class="cls-1" d="M182.9,101h-77.1c-3.2,0-5.8,2.6-5.8,5.8v77.1c0,3.2,2.6,5.8,5.8,5.8h77.1c3.2,0,5.8-2.6,5.8-5.8v-77.1c0-3.2-2.6-5.8-5.8-5.8ZM180.1,181.1h-71.7v-71.7h71.7v71.7Z"/>
      <path class="cls-1" d="M136.3,87.3c2.1,2.1,5,3.3,8,3.3s5.9-1.2,8-3.3l34-34c2.1-2.1,3.3-5,3.3-8s-1.2-5.9-3.3-8L152.3,3.3c-2.1-2.1-5-3.3-8-3.3s-5.9,1.2-8,3.3l-34,34c-2.1,2.1-3.3,5-3.3,8s1.2,5.9,3.3,8l34,34ZM108.3,43.3l34-34c.5-.5,1.2-.8,2-.8s1.5.3,2,.8l34,34c.5.5.8,1.2.8,2s-.3,1.5-.8,2l-34,34c-.5.5-1.2.8-2,.8s-1.5-.3-2-.8l-34-34c-.5-.5-.8-1.2-.8-2s.3-1.5.8-2Z"/>
    </g>
  </g>
</svg>