<?xml version="1.0" encoding="UTF-8"?>
<svg id="_图层_2" data-name="图层 2" xmlns="http://www.w3.org/2000/svg" viewBox="0 0 198.43 198.43">
  <defs>
    <style>
      .cls-1 {
        fill: #6e6e6e;
      }
    </style>
  </defs>
  <g id="_图层_1-2" data-name="图层 1">
    <g>
      <path class="cls-1" d="M99.21,0h0C44.42,0,0,44.42,0,99.21h0c0,54.79,44.42,99.21,99.21,99.21h0c54.79,0,99.21-44.42,99.21-99.21h0C198.43,44.42,154.01,0,99.21,0ZM99.21,189.92c-50.02,0-90.71-40.69-90.71-90.71S49.2,8.5,99.21,8.5s90.71,40.69,90.71,90.71-40.69,90.71-90.71,90.71Z"/>
      <path class="cls-1" d="M130.91,50.29c-7.4-7.2-17.4-10.8-30.2-10.8-14,0-25,4.4-32.8,13.6-7.2,8.4-11,19.2-11.2,32.8h12c.2-10.4,2.6-18.8,7.4-25,5.4-7.2,13.4-10.6,24-10.6,9.4,0,16.8,2.4,22,7.6,4.8,5,7.4,11.8,7.4,20.4,0,6-2.2,11.6-6.2,17-1.6,2-4.8,5.2-9.4,9.6-9.6,8.4-15.6,15.8-18.4,21.8-2.4,4.8-3.6,10.2-3.6,16v5.8h12.2v-5.8c0-5.6,1.4-10.8,4.2-15.4,2-3.6,5.4-7.4,10.2-11.4,8.2-7.6,13.4-12.6,15.8-15.4,4.8-6.6,7.4-14.2,7.4-22.6,0-11.6-3.6-20.8-10.8-27.6Z"/>
      <path class="cls-1" d="M98.11,165.09c-2.8,0-5.2.8-7,2.8-2.2,1.8-3.2,4.2-3.2,7.2,0,2.8,1,5,3.2,7,1.8,2,4.2,3,7,3s5.2-1,7.2-2.8c2-2,3-4.4,3-7.2,0-3-1-5.4-3-7.2-2-2-4.4-2.8-7.2-2.8Z"/>
    </g>
  </g>
</svg>