<?xml version="1.0" encoding="UTF-8"?>
<svg id="_图层_2" xmlns="http://www.w3.org/2000/svg" version="1.1" viewBox="0 0 198.4 198.4">
  <!-- Generator: Adobe Illustrator 29.0.1, SVG Export Plug-In . SVG Version: 2.1.0 Build 192)  -->
  <defs>
    <style>
      .st0 {
        fill: #6e6e6e;
      }
    </style>
  </defs>
  <path class="st0" d="M0,171.1c1-12.4,11.4-22.2,24-22.3,0,0,.2,0,.3,0h149.8c8.6,0,15.8-6.5,16.8-14.9h7.5c-1,12.5-11.5,22.4-24.3,22.4H24.6c0,0-.2,0-.3,0-8.6,0-15.8,6.5-16.8,14.9H0Z"/>
  <path class="st0" d="M137.6,123.1c-1.5,0-3-.6-4.1-1.7l-11.7-11.5c-.4-.4-.9-.6-1.4-.6s-.8.1-1.1.4c-6.9,4.8-15,7.4-23.4,7.4s-21-4.2-28.7-11.8c-16.1-15.8-16.2-41.8-.4-57.9,7.8-7.9,18.1-12.2,29.1-12.2s21,4.2,28.7,11.8c14.1,13.9,16.2,35.8,5.1,52.1-.5.8-.4,1.9.2,2.5l11.7,11.5c2.3,2.2,2.3,5.9,0,8.2-1.1,1.1-2.6,1.7-4.1,1.7h0ZM95.9,42.6c-9.1,0-17.6,3.5-23.9,10-6.3,6.4-9.7,14.8-9.7,23.8,0,9,3.6,17.4,10,23.7,6.3,6.2,14.7,9.7,23.6,9.7s13.6-2.1,19.2-6c1.5-1,3.2-1.6,5-1.7,1.1,0,1.9-.9,1.9-2,0-1.8.6-3.5,1.5-4.9,0,0,0,0,0-.1,9.1-13.4,7.3-31.4-4.2-42.8-6.4-6.3-14.6-9.7-23.6-9.7Z"/>
  <path class="st0" d="M172.5,0H25.9C11.6,0,0,11.6,0,25.9v146.7c0,14.3,11.6,25.9,25.9,25.9h146.7c14.3,0,25.9-11.6,25.9-25.9V25.9c0-14.3-11.6-25.9-25.9-25.9ZM191.1,172c0,10.6-8.6,19.1-19.1,19.1H26.5c-10.6,0-19.1-8.6-19.1-19.1V26.5C7.3,15.9,15.9,7.3,26.5,7.3h145.5c10.6,0,19.1,8.6,19.1,19.1v145.5Z"/>
</svg>