<?xml version="1.0" encoding="UTF-8"?>
<svg id="_图层_2" data-name="图层 2" xmlns="http://www.w3.org/2000/svg" viewBox="0 0 199.88 200">
  <defs>
    <style>
      .cls-1 {
        fill: #6e6e6e;
      }
    </style>
  </defs>
  <g id="_图层_1-2" data-name="图层 1">
    <path class="cls-1" d="M170.61,29.27C151.73,10.4,126.64,0,99.94,0S48.15,10.4,29.27,29.27C10.4,48.15,0,73.24,0,99.94c0,13.74,2.74,27.06,8.15,39.59,5.22,12.09,12.68,22.9,22.16,32.11.12.11.2.2.2.66.01,4.13-6.14,12.13-10.29,16.21-1.93,1.89-2.53,4.79-1.51,7.3,1.02,2.5,3.46,4.19,6.16,4.19h75.07c26.69,0,51.79-10.45,70.67-29.33,18.88-18.88,29.27-44.03,29.27-70.73s-10.4-51.79-29.27-70.67ZM164.6,164.66c-17.3,17.31-40.27,26.84-64.66,26.84H29.06c3.84-4.36,9.96-12.39,9.94-19.22,0-2.69-.94-4.95-2.78-6.73-8.68-8.43-15.5-18.32-20.28-29.38-4.94-11.45-7.45-23.64-7.45-36.22,0-24.42,9.51-47.39,26.78-64.66S75.52,8.5,99.94,8.5s47.39,9.51,64.66,26.78,26.78,40.23,26.78,64.66-9.51,47.44-26.78,64.71Z"/>
  </g>
</svg>