<?xml version="1.0" encoding="UTF-8"?>
<svg id="_图层_2" xmlns="http://www.w3.org/2000/svg" version="1.1" viewBox="0 0 200 200">
  <!-- Generator: Adobe Illustrator 29.0.1, SVG Export Plug-In . SVG Version: 2.1.0 Build 192)  -->
  <defs>
    <style>
      .st0 {
        fill: #6e6e6e;
      }
    </style>
  </defs>
  <path class="st0" d="M61.5,106.6c-9.5,0-17.2-7.7-17.2-17.2s7.7-17.2,17.2-17.2,17.2,7.7,17.2,17.2-7.7,17.2-17.2,17.2Z"/>
  <path class="st0" d="M138.5,106.6c-9.5,0-17.2-7.7-17.2-17.2s7.7-17.2,17.2-17.2,17.2,7.7,17.2,17.2-7.7,17.2-17.2,17.2Z"/>
  <path class="st0" d="M194.2,0H5.8C2.6,0,0,2.6,0,5.8v188.5c0,3.2,2.6,5.8,5.8,5.8h188.5c3.2,0,5.8-2.6,5.8-5.8V5.8c0-3.2-2.6-5.8-5.8-5.8ZM192.6,192.6H7.4V7.4h185.1v185.1Z"/>
</svg>