<?xml version="1.0" encoding="UTF-8"?>
<svg id="_图层_2" data-name="图层 2" xmlns="http://www.w3.org/2000/svg" viewBox="0 0 198.42 198.43">
  <defs>
    <style>
      .cls-1 {
        fill: #18b21b;
      }
    </style>
  </defs>
  <g id="_图层_1-2" data-name=" 图层 1">
    <g>
      <path class="cls-1" d="M196.77,156.12c-.46-.24-.95-.36-1.45-.36-.61,0-1.22.18-1.74.54-4.18,2.85-9.08,4.35-14.16,4.35H19.39c-.12-.01-.25-.02-.38-.02C8.6,160.63.08,169.1,0,179.5c.07,10.45,8.59,18.92,19,18.92h160.41c10.48,0,19.01-8.53,19.01-19.01v-20.56c0-1.15-.64-2.2-1.65-2.74ZM195.32,179.42c0,8.77-7.14,15.91-15.91,15.91H19.01c-8.73,0-15.84-7.08-15.9-15.8.06-8.72,7.17-15.8,15.9-15.8v.02h160.41c5.9,0,11.37-1.8,15.9-4.89v20.56Z"/>
      <path class="cls-1" d="M179.42,0H19.01C8.53,0,0,8.53,0,19.01v137.21c0,1.15.64,2.2,1.65,2.74.46.24.95.36,1.45.36.61,0,1.22-.18,1.74-.54,4.18-2.85,9.08-4.35,14.16-4.35l160.41.02c10.48,0,19.01-8.53,19.01-19.01V19.01c0-10.48-8.53-19.01-19.01-19.01ZM143.18,122.83c-3.02,3.06-7.96,3.1-11.02.07l-11.66-11.51c-16.65,11.65-39.74,10.15-54.72-4.63-16.88-16.65-17.06-43.83-.41-60.71s43.83-17.06,60.71-.41c14.98,14.78,16.8,37.85,5.37,54.66l11.66,11.51c3.06,3.02,3.1,7.96.07,11.02Z"/>
      <path class="cls-1" d="M95.93,44.61c-8.52,0-16.51,3.34-22.49,9.4-12.23,12.4-12.1,32.44.3,44.67,5.94,5.87,13.82,9.09,22.17,9.09,6.53,0,12.78-1.96,18.09-5.68,1.85-1.3,3.98-1.97,6.11-2.04.04-2.13.69-4.27,1.96-6.14,8.56-12.59,6.9-29.5-3.96-40.21-5.95-5.87-13.83-9.1-22.18-9.1Z"/>
    </g>
  </g>
</svg>