<?xml version="1.0" encoding="UTF-8"?>
<svg id="_图层_2" data-name="图层 2" xmlns="http://www.w3.org/2000/svg" viewBox="0 0 199.88 200">
  <defs>
    <style>
      .cls-1 {
        fill: #18b21b;
      }
    </style>
  </defs>
  <g id="_图层_1-2" data-name="图层 1">
    <path class="cls-1" d="M170.61,29.27C151.73,10.4,126.64,0,99.94,0S48.15,10.4,29.27,29.27C10.4,48.15,0,73.24,0,99.94c0,13.74,2.74,27.06,8.15,39.59,5.22,12.09,12.68,22.9,22.16,32.11.12.11.2.2.2.66.01,4.13-6.14,12.13-10.29,16.21-1.93,1.89-2.53,4.79-1.51,7.3,1.02,2.5,3.46,4.19,6.16,4.19h75.07c26.69,0,51.79-10.45,70.67-29.33,18.88-18.88,29.27-44.03,29.27-70.73s-10.4-51.79-29.27-70.67Z"/>
  </g>
</svg>